<?xml version="1.0" encoding="UTF-8"?>
<svg xmlns="http://www.w3.org/2000/svg" style="stroke-dasharray:none; shape-rendering:auto; font-family:'Arial'; text-rendering:auto; fill-opacity:1; color-interpolation:auto; color-rendering:auto; font-size:12; fill:black; stroke:black; image-rendering:auto; stroke-miterlimit:10; stroke-linecap:square; stroke-linejoin:miter; font-style:normal; stroke-width:1; stroke-dashoffset:0; font-weight:normal; stroke-opacity:1;" contentScriptType="text/ecmascript" preserveAspectRatio="xMidYMid meet" zoomAndPan="magnify" version="1.0" contentStyleType="text/css" xml:xlink="http://www.w3.org/1999/xlink" width="1395" height="481"><g sequence="1"><ellipse cx="57" cy="253" rx="17" ry="17" stroke-width="1" style="fill:url(#linearGradient66FF6696FF96B6FFB6_640891699);" stroke="336633" /></g><g sequence="2"><rect x="160" y="219" width="106" height="76" ry="5" rx="5" style="fill:url(#linearGradientF8FBFEEDF5FCDEEDFAD4E7F8E2E5E9_687133061);" stroke="191970" /></g><g componentSequence="2"><text x="213" y="234" text-anchor="middle" style="font-weight:bold;font-size:10px;stroke:none; fill:#333399"><tspan dy="14" x="213">ASSUMIR A</tspan><tspan dy="14" x="213">VAGA</tspan></text></g><g sequence="4"><polygon points=" 320 226 350 196 380 226 350 256 320 226" style="fill:url(#linearGradientFAFBFCFFFFCC_751521859);" stroke="000000" /></g><g componentSequence="4"><text x="350" y="266" text-anchor="middle" style="font-weight:bold;font-size:10px;stroke:none; fill:#333399"><tspan dy="14" x="350">TEM</tspan><tspan dy="14" x="350">ATIVID</tspan><tspan dy="14" x="350">...</tspan></text></g><g sequence="8"><rect x="570" y="29" width="106" height="76" ry="5" rx="5" style="fill:url(#linearGradientF8FBFEEDF5FCDEEDFAD4E7F8E2E5E9_1774836670);" stroke="191970" /></g><g componentSequence="8"><text x="623" y="44" text-anchor="middle" style="font-weight:bold;font-size:10px;stroke:none; fill:#333399"><tspan dy="14" x="623">ANALISE</tspan><tspan dy="14" x="623">CURRICULO</tspan></text></g><g sequence="10"><rect x="570" y="212" width="106" height="108" ry="5" rx="5" style="fill:url(#linearGradientF8FBFEEDF5FCDEEDFAD4E7F8E2E5E9_1444716311);" stroke="191970" /></g><g componentSequence="10"><text x="623" y="227" text-anchor="middle" style="font-weight:bold;font-size:10px;stroke:none; fill:#333399"><tspan dy="14" x="623">T.I SEPARAR</tspan><tspan dy="14" x="623">FERRAMEN</tspan><tspan dy="14" x="623">TAS DE</tspan><tspan dy="14" x="623">TRABALHO</tspan></text></g><g sequence="12"><polygon points=" 750 240 780 210 810 240 780 270 750 240" style="fill:url(#linearGradientFAFBFCFFFFCC_1491735720);" stroke="000000" /></g><path style="fill:none; stroke-width:6; stroke:#000000;" d="M770.0 240.0 L790.0 240.0" /><path style="fill:none; stroke-width:6; stroke:#000000;" d="M780.0 230.0 L780.0 250.0" /><g componentSequence="12"><text x="780" y="275" text-anchor="middle" style="font-weight:bold;font-size:10px;stroke:none; fill:#333399"><tspan dy="14" x="780">Join</tspan></text></g><g sequence="15"><rect x="873" y="219" width="106" height="76" ry="5" rx="5" style="fill:url(#linearGradientF8FBFEEDF5FCDEEDFAD4E7F8E2E5E9_785714878);" stroke="191970" /></g><g componentSequence="15"><text x="926" y="234" text-anchor="middle" style="font-weight:bold;font-size:10px;stroke:none; fill:#333399"><tspan dy="14" x="926">RH AGENDA</tspan><tspan dy="14" x="926">ENTREVISTA</tspan></text></g><g sequence="17"><polygon points=" 1041 226 1071 196 1101 226 1071 256 1041 226" style="fill:url(#linearGradientFAFBFCFFFFCC_166077681);" stroke="000000" /></g><g componentSequence="17"><text x="1071" y="266" text-anchor="middle" style="font-weight:bold;font-size:10px;stroke:none; fill:#333399"><tspan dy="14" x="1071">CANDI</tspan><tspan dy="14" x="1071">DATO</tspan><tspan dy="14" x="1071">A...</tspan></text></g><g sequence="27"><rect x="870" y="49" width="106" height="76" ry="5" rx="5" style="fill:url(#linearGradientF8FBFEEDF5FCDEEDFAD4E7F8E2E5E9_1001453309);" stroke="191970" /></g><g componentSequence="27"><text x="923" y="64" text-anchor="middle" style="font-weight:bold;font-size:10px;stroke:none; fill:#333399"><tspan dy="14" x="923">ANALISE</tspan><tspan dy="14" x="923">CURRICULO</tspan></text></g><g sequence="33"><polygon points=" 1230 227 1260 197 1290 227 1260 257 1230 227" style="fill:url(#linearGradientFAFBFCFFFFCC_863496823);" stroke="000000" /></g><g componentSequence="33"><text x="1260" y="267" text-anchor="middle" style="font-weight:bold;font-size:10px;stroke:none; fill:#333399"><tspan dy="14" x="1260">VALID</tspan><tspan dy="14" x="1260">AÇÃO</tspan><tspan dy="14" x="1260">AD...</tspan></text></g><g sequence="35"><ellipse cx="1377" cy="254" rx="17" ry="17" stroke-width="3" style="fill:url(#linearGradientFF6666FF9696FFB6B6_902931033);" stroke="993333" /></g><g sequence="53"><ellipse cx="1167" cy="254" rx="17" ry="17" stroke-width="1" style="fill:url(#linearGradientFFFF66FFFF96FFFFB6_229169598);" stroke="999900" /></g><g sequence="53"><rect x="1157" y="244" width="21" height="21" ry="0" rx="0" style="stroke:#000000; fill:none" /></g><g sequence="53"><path style="fill:none; stroke-width:1; stroke:#000000;" d="M1159.0 247.0 L1174.0 247.0" /></g><g sequence="53"><path style="fill:none; stroke-width:1; stroke:#000000;" d="M1159.0 252.0 L1174.0 252.0" /></g><g sequence="53"><path style="fill:none; stroke-width:1; stroke:#000000;" d="M1159.0 257.0 L1174.0 257.0" /></g><g sequence="53"><path style="fill:none; stroke-width:1; stroke:#000000;" d="M1159.0 262.0 L1174.0 262.0" /></g><g sequence="56"><rect x="570" y="421" width="106" height="60" ry="5" rx="5" style="fill:url(#linearGradientF8FBFEEDF5FCDEEDFAD4E7F8E2E5E9_823378408);" stroke="191970" /></g><g componentSequence="56"><text x="623" y="440" text-anchor="middle" style="font-weight:bold;font-size:10px;stroke:none; fill:#333399"><tspan dy="14" x="623">Facilities</tspan></text></g><g sequence="61"><polygon points=" 420 240 450 210 480 240 450 270 420 240" style="fill:url(#linearGradientFAFBFCFFFFCC_1027318255);" stroke="000000" /></g><ellipse cx="450" cy="240" rx="17" ry="17" stroke-width="1" style="fill:url(#linearGradientFAFBFCFFFFCC_96477051);" stroke="000000" /><g componentSequence="61"><text x="450" y="280" text-anchor="middle" style="font-weight:bold;font-size:10px;stroke:none; fill:#333399"><tspan dy="14" x="450">Inclusiv</tspan><tspan dy="14" x="450">e</tspan></text></g><g componentSequence="13"><text x="789" y="85" style="font-size:10px;font-weight:none;stroke:none; fill:#333399" text-anchor="left" /></g><g componentSequence="14"><text x="723" y="260" style="font-size:10px;font-weight:none;stroke:none; fill:#333399" text-anchor="left" /></g><g componentSequence="16"><text x="851" y="256" style="font-size:10px;font-weight:none;stroke:none; fill:#333399" text-anchor="left" /></g><g componentSequence="18"><text x="1020" y="257" style="font-size:10px;font-weight:none;stroke:none; fill:#333399" text-anchor="left" /></g><g componentSequence="28"><text x="1078" y="4" style="font-size:10px;font-weight:none;stroke:none; fill:#333399" text-anchor="left" /></g><g componentSequence="29"><text x="934" y="172" style="font-size:10px;font-weight:none;stroke:none; fill:#333399" text-anchor="left" /></g><g componentSequence="36"><text x="1335" y="256" style="font-size:10px;font-weight:none;stroke:none; fill:#333399" text-anchor="left" /></g><g componentSequence="42"><text x="1176" y="1" style="font-size:10px;font-weight:none;stroke:none; fill:#333399" text-anchor="left" /></g><g componentSequence="44"><text x="572" y="9" style="font-size:10px;font-weight:none;stroke:none; fill:#333399" text-anchor="left" /></g><g componentSequence="54"><text x="1135" y="256" style="font-size:10px;font-weight:none;stroke:none; fill:#333399" text-anchor="left" /></g><g componentSequence="55"><text x="1217" y="256" style="font-size:10px;font-weight:none;stroke:none; fill:#333399" text-anchor="left" /></g><g componentSequence="58"><text x="789" y="427" style="font-size:10px;font-weight:none;stroke:none; fill:#333399" text-anchor="left" /></g><g componentSequence="62"><text x="410" y="261" style="font-size:10px;font-weight:none;stroke:none; fill:#333399" text-anchor="left" /></g><g componentSequence="63"><text x="459" y="76" style="font-size:10px;font-weight:none;stroke:none; fill:#333399" text-anchor="left" /></g><g componentSequence="64"><text x="535" y="265" style="font-size:10px;font-weight:none;stroke:none; fill:#333399" text-anchor="left" /></g><g componentSequence="65"><text x="459" y="444" style="font-size:10px;font-weight:none;stroke:none; fill:#333399" text-anchor="left" /></g><g componentSequence="66"><text x="303" y="257" style="font-size:10px;font-weight:none;stroke:none; fill:#333399" text-anchor="left" /></g><g componentSequence="67"><text x="127" y="254" style="font-size:10px;font-weight:none;stroke:none; fill:#333399" text-anchor="left" /></g><path style="fill:none; stroke:#000000;stroke-width:1" d="M74.0 253.0 L159.0 255.0" /><polygon style="fill:#000000; stroke:#000000;" points=" 149 250 159 255 149 260 151 255" /><path style="fill:none; stroke:#000000;stroke-width:1" d="M266.0 257.0 L319.0 257.0" /><polygon style="fill:#000000; stroke:#000000;" points=" 309 252 319 257 309 262 311 257" /><path style="fill:none; stroke:#000000;stroke-width:1" d="M349.0 195.0 L349.0 9.0 L922.0 9.0 L922.0 48.0" /><polygon style="fill:#000000; stroke:#000000;" points=" 927 38 922 48 917 38 922 40" /><path style="fill:none; stroke:#000000;stroke-width:1" d="M380.0 259.0 L419.0 262.0" /><polygon style="fill:#000000; stroke:#000000;" points=" 409 256 419 262 409 266 411 261" /><path style="fill:none; stroke:#000000;stroke-width:1" d="M676.0 66.0 L779.0 64.0 L779.0 209.0" /><polygon style="fill:#000000; stroke:#000000;" points=" 784 199 779 209 774 199 779 201" /><path style="fill:none; stroke:#000000;stroke-width:1" d="M449.0 209.0 L449.0 64.0 L569.0 66.0" /><polygon style="fill:#000000; stroke:#000000;" points=" 559 61 569 66 559 71 561 66" /><path style="fill:none; stroke:#000000;stroke-width:1" d="M676.0 262.0 L749.0 258.0" /><polygon style="fill:#000000; stroke:#000000;" points=" 739 254 749 258 739 264 741 258" /><path style="fill:none; stroke:#000000;stroke-width:1" d="M480.0 264.0 L569.0 265.0" /><polygon style="fill:#000000; stroke:#000000;" points=" 559 260 569 265 559 270 561 265" /><path style="fill:none; stroke:#000000;stroke-width:1" d="M810.0 256.0 L872.0 256.0" /><polygon style="fill:#000000; stroke:#000000;" points=" 862 251 872 256 862 261 864 256" /><path style="fill:none; stroke:#000000;stroke-width:1" d="M676.0 450.0 L779.0 449.0 L779.0 302.0" /><polygon style="fill:#000000; stroke:#000000;" points=" 774 312 779 302 784 312 779 310" /><path style="fill:none; stroke:#000000;stroke-width:1" d="M979.0 257.0 L1040.0 257.0" /><polygon style="fill:#000000; stroke:#000000;" points=" 1030 252 1040 257 1030 262 1032 257" /><path style="fill:none; stroke:#000000;stroke-width:1" d="M923.0 125.0 L925.0 218.0" /><polygon style="fill:#000000; stroke:#000000;" points=" 930 208 925 218 920 208 925 210" /><path style="fill:none; stroke:#000000;stroke-width:1" d="M1070.0 195.0 L1070.0 4.0 L920.0 4.0 L921.0 48.0" /><polygon style="fill:#000000; stroke:#000000;" points=" 926 38 921 48 916 38 921 40" /><path style="fill:none; stroke:#000000;stroke-width:1" d="M1101.0 256.0 L1150.0 254.0" /><polygon style="fill:#000000; stroke:#000000;" points=" 1140 249 1150 254 1140 259 1142 254" /><path style="fill:none; stroke:#000000;stroke-width:1" d="M1260.0 196.0 L1262.0 1.0 L922.0 1.0 L922.0 48.0" /><polygon style="fill:#000000; stroke:#000000;" points=" 927 38 922 48 917 38 922 40" /><path style="fill:none; stroke:#000000;stroke-width:1" d="M1290.0 257.0 L1360.0 254.0" /><polygon style="fill:#000000; stroke:#000000;" points=" 1350 249 1360 254 1350 259 1352 254" /><path style="fill:none; stroke:#000000;stroke-width:1" d="M1184.0 254.0 L1229.0 257.0" /><polygon style="fill:#000000; stroke:#000000;" points=" 1219 251 1229 257 1219 261 1221 256" /><path style="fill:none; stroke:#000000;stroke-width:1" d="M449.0 318.0 L449.0 449.0 L569.0 450.0" /><polygon style="fill:#000000; stroke:#000000;" points=" 559 445 569 450 559 455 561 450" /><defs><linearGradient xmlns:xlink="http://www.w3.org/1999/xlink" xlink:href="#linearGradient66FF6696FF96B6FFB6" id="linearGradient66FF6696FF96B6FFB6_640891699" x1="0" y1="236.0" x2="0" y2="271.0" gradientUnits="userSpaceOnUse" xlink:type="simple" xlink:actuate="onLoad" xlink:show="other" /><linearGradient id="linearGradient66FF6696FF96B6FFB6"><stop style="stop-color:#66FF66;stop-opacity:1;" offset="0.0" id="stop66FF66" /><stop style="stop-color:#96FF96;stop-opacity:1;" offset="0.5" id="stop96FF96" /><stop style="stop-color:#B6FFB6;stop-opacity:1;" offset="1.0" id="stopB6FFB6" /></linearGradient><linearGradient xmlns:xlink="http://www.w3.org/1999/xlink" xlink:href="#linearGradientF8FBFEEDF5FCDEEDFAD4E7F8E2E5E9" id="linearGradientF8FBFEEDF5FCDEEDFAD4E7F8E2E5E9_687133061" x1="0" y1="219.0" x2="0" y2="325.0" gradientUnits="userSpaceOnUse" xlink:type="simple" xlink:actuate="onLoad" xlink:show="other" /><linearGradient id="linearGradientF8FBFEEDF5FCDEEDFAD4E7F8E2E5E9"><stop style="stop-color:#F8FBFE;stop-opacity:1;" offset="0.0" id="stopF8FBFE" /><stop style="stop-color:#EDF5FC;stop-opacity:1;" offset="0.25" id="stopEDF5FC" /><stop style="stop-color:#DEEDFA;stop-opacity:1;" offset="0.5" id="stopDEEDFA" /><stop style="stop-color:#D4E7F8;stop-opacity:1;" offset="0.75" id="stopD4E7F8" /><stop style="stop-color:#E2E5E9;stop-opacity:1;" offset="1.0" id="stopE2E5E9" /></linearGradient><linearGradient xmlns:xlink="http://www.w3.org/1999/xlink" xlink:href="#linearGradientFAFBFCFFFFCC" id="linearGradientFAFBFCFFFFCC_751521859" x1="0" y1="196.0" x2="0" y2="256.0" gradientUnits="userSpaceOnUse" xlink:type="simple" xlink:actuate="onLoad" xlink:show="other" /><linearGradient id="linearGradientFAFBFCFFFFCC"><stop style="stop-color:#FAFBFC;stop-opacity:1;" offset="0.0" id="stopFAFBFC" /><stop style="stop-color:#FFFFCC;stop-opacity:1;" offset="1.0" id="stopFFFFCC" /></linearGradient><linearGradient xmlns:xlink="http://www.w3.org/1999/xlink" xlink:href="#linearGradientF8FBFEEDF5FCDEEDFAD4E7F8E2E5E9" id="linearGradientF8FBFEEDF5FCDEEDFAD4E7F8E2E5E9_1774836670" x1="0" y1="29.0" x2="0" y2="135.0" gradientUnits="userSpaceOnUse" xlink:type="simple" xlink:actuate="onLoad" xlink:show="other" /><linearGradient xmlns:xlink="http://www.w3.org/1999/xlink" xlink:href="#linearGradientF8FBFEEDF5FCDEEDFAD4E7F8E2E5E9" id="linearGradientF8FBFEEDF5FCDEEDFAD4E7F8E2E5E9_1444716311" x1="0" y1="212.0" x2="0" y2="318.0" gradientUnits="userSpaceOnUse" xlink:type="simple" xlink:actuate="onLoad" xlink:show="other" /><linearGradient xmlns:xlink="http://www.w3.org/1999/xlink" xlink:href="#linearGradientFAFBFCFFFFCC" id="linearGradientFAFBFCFFFFCC_1491735720" x1="0" y1="210.0" x2="0" y2="270.0" gradientUnits="userSpaceOnUse" xlink:type="simple" xlink:actuate="onLoad" xlink:show="other" /><linearGradient xmlns:xlink="http://www.w3.org/1999/xlink" xlink:href="#linearGradientF8FBFEEDF5FCDEEDFAD4E7F8E2E5E9" id="linearGradientF8FBFEEDF5FCDEEDFAD4E7F8E2E5E9_785714878" x1="0" y1="219.0" x2="0" y2="325.0" gradientUnits="userSpaceOnUse" xlink:type="simple" xlink:actuate="onLoad" xlink:show="other" /><linearGradient xmlns:xlink="http://www.w3.org/1999/xlink" xlink:href="#linearGradientFAFBFCFFFFCC" id="linearGradientFAFBFCFFFFCC_166077681" x1="0" y1="196.0" x2="0" y2="256.0" gradientUnits="userSpaceOnUse" xlink:type="simple" xlink:actuate="onLoad" xlink:show="other" /><linearGradient xmlns:xlink="http://www.w3.org/1999/xlink" xlink:href="#linearGradientF8FBFEEDF5FCDEEDFAD4E7F8E2E5E9" id="linearGradientF8FBFEEDF5FCDEEDFAD4E7F8E2E5E9_1001453309" x1="0" y1="49.0" x2="0" y2="155.0" gradientUnits="userSpaceOnUse" xlink:type="simple" xlink:actuate="onLoad" xlink:show="other" /><linearGradient xmlns:xlink="http://www.w3.org/1999/xlink" xlink:href="#linearGradientFAFBFCFFFFCC" id="linearGradientFAFBFCFFFFCC_863496823" x1="0" y1="197.0" x2="0" y2="257.0" gradientUnits="userSpaceOnUse" xlink:type="simple" xlink:actuate="onLoad" xlink:show="other" /><linearGradient xmlns:xlink="http://www.w3.org/1999/xlink" xlink:href="#linearGradientFF6666FF9696FFB6B6" id="linearGradientFF6666FF9696FFB6B6_902931033" x1="0" y1="237.0" x2="0" y2="272.0" gradientUnits="userSpaceOnUse" xlink:type="simple" xlink:actuate="onLoad" xlink:show="other" /><linearGradient id="linearGradientFF6666FF9696FFB6B6"><stop style="stop-color:#FF6666;stop-opacity:1;" offset="0.0" id="stopFF6666" /><stop style="stop-color:#FF9696;stop-opacity:1;" offset="0.5" id="stopFF9696" /><stop style="stop-color:#FFB6B6;stop-opacity:1;" offset="1.0" id="stopFFB6B6" /></linearGradient><linearGradient xmlns:xlink="http://www.w3.org/1999/xlink" xlink:href="#linearGradientFFFF66FFFF96FFFFB6" id="linearGradientFFFF66FFFF96FFFFB6_229169598" x1="0" y1="237.0" x2="0" y2="272.0" gradientUnits="userSpaceOnUse" xlink:type="simple" xlink:actuate="onLoad" xlink:show="other" /><linearGradient id="linearGradientFFFF66FFFF96FFFFB6"><stop style="stop-color:#FFFF66;stop-opacity:1;" offset="0.0" id="stopFFFF66" /><stop style="stop-color:#FFFF96;stop-opacity:1;" offset="0.5" id="stopFFFF96" /><stop style="stop-color:#FFFFB6;stop-opacity:1;" offset="1.0" id="stopFFFFB6" /></linearGradient><linearGradient xmlns:xlink="http://www.w3.org/1999/xlink" xlink:href="#linearGradientF8FBFEEDF5FCDEEDFAD4E7F8E2E5E9" id="linearGradientF8FBFEEDF5FCDEEDFAD4E7F8E2E5E9_823378408" x1="0" y1="421.0" x2="0" y2="527.0" gradientUnits="userSpaceOnUse" xlink:type="simple" xlink:actuate="onLoad" xlink:show="other" /><linearGradient xmlns:xlink="http://www.w3.org/1999/xlink" xlink:href="#linearGradientFAFBFCFFFFCC" id="linearGradientFAFBFCFFFFCC_1027318255" x1="0" y1="210.0" x2="0" y2="270.0" gradientUnits="userSpaceOnUse" xlink:type="simple" xlink:actuate="onLoad" xlink:show="other" /><linearGradient xmlns:xlink="http://www.w3.org/1999/xlink" xlink:href="#linearGradientFAFBFCFFFFCC" id="linearGradientFAFBFCFFFFCC_96477051" x1="0" y1="223.0" x2="0" y2="258.0" gradientUnits="userSpaceOnUse" xlink:type="simple" xlink:actuate="onLoad" xlink:show="other" /></defs></svg>
