<?xml version="1.0" encoding="UTF-8"?>
<svg xmlns="http://www.w3.org/2000/svg" style="stroke-dasharray:none; shape-rendering:auto; font-family:'Arial'; text-rendering:auto; fill-opacity:1; color-interpolation:auto; color-rendering:auto; font-size:12; fill:black; stroke:black; image-rendering:auto; stroke-miterlimit:10; stroke-linecap:square; stroke-linejoin:miter; font-style:normal; stroke-width:1; stroke-dashoffset:0; font-weight:normal; stroke-opacity:1;" contentScriptType="text/ecmascript" preserveAspectRatio="xMidYMid meet" zoomAndPan="magnify" version="1.0" contentStyleType="text/css" xml:xlink="http://www.w3.org/1999/xlink" width="1251" height="801"><rect x="10" y="9" width="1241" height="792" ry="0" rx="0" style="stroke:#000000; fill:#FFFFFF" /><rect x="40" y="122" width="1211" height="113" ry="0" rx="0" style="stroke:#000000; fill:#FFFFFF" /><g componentSequence="8"><text x="-178" y="48" transform="rotate(270)" text-anchor="middle" style="font-weight:bold;font-size:10px;stroke:none; fill:#434343"><tspan dy="14" x="-178">Gestor</tspan></text></g><rect x="40" y="687" width="1211" height="114" ry="0" rx="0" style="stroke:#000000; fill:#FFFFFF" /><g componentSequence="7"><text x="-744" y="697" transform="rotate(270)" text-anchor="middle" style="font-weight:bold;font-size:10px;stroke:none; fill:#434343"><tspan dy="14" x="-744">Segurança</tspan><tspan dy="14" x="-744">Trab...</tspan></text></g><rect x="40" y="461" width="1211" height="113" ry="0" rx="0" style="stroke:#000000; fill:#FFFFFF" /><g componentSequence="6"><text x="-517" y="48" transform="rotate(270)" text-anchor="middle" style="font-weight:bold;font-size:10px;stroke:none; fill:#434343"><tspan dy="14" x="-517">TI</tspan></text></g><rect x="40" y="348" width="1211" height="113" ry="0" rx="0" style="stroke:#000000; fill:#FFFFFF" /><g componentSequence="5"><text x="-404" y="48" transform="rotate(270)" text-anchor="middle" style="font-weight:bold;font-size:10px;stroke:none; fill:#434343"><tspan dy="14" x="-404">Diretoria</tspan></text></g><rect x="40" y="235" width="1211" height="113" ry="0" rx="0" style="stroke:#000000; fill:#FFFFFF" /><g componentSequence="4"><text x="-291" y="48" transform="rotate(270)" text-anchor="middle" style="font-weight:bold;font-size:10px;stroke:none; fill:#434343"><tspan dy="14" x="-291">RH</tspan></text></g><rect x="40" y="574" width="1211" height="113" ry="0" rx="0" style="stroke:#000000; fill:#FFFFFF" /><g componentSequence="3"><text x="-630" y="48" transform="rotate(270)" text-anchor="middle" style="font-weight:bold;font-size:10px;stroke:none; fill:#434343"><tspan dy="14" x="-630">Facilities</tspan></text></g><rect x="40" y="9" width="1211" height="113" ry="0" rx="0" style="stroke:#000000; fill:#FFFFFF" /><g componentSequence="2"><text x="-65" y="48" transform="rotate(270)" text-anchor="middle" style="font-weight:bold;font-size:10px;stroke:none; fill:#434343"><tspan dy="14" x="-65">Solicitante</tspan></text></g><g componentSequence="1"><text x="-405" y="18" transform="rotate(270)" text-anchor="middle" style="font-weight:bold;font-size:10px;stroke:none; fill:#434343"><tspan dy="14" x="-405">Recrutamento e Seleção v3.0</tspan></text></g><g sequence="1"><ellipse cx="117" cy="66" rx="17" ry="17" stroke-width="1" style="fill:url(#linearGradient66FF6696FF96B6FFB6_1790496050);" stroke="336633" /></g><g sequence="2"><rect x="950" y="142" width="106" height="76" ry="5" rx="5" style="fill:url(#linearGradientF8FBFEEDF5FCDEEDFAD4E7F8E2E5E9_1686056469);" stroke="191970" /></g><g componentSequence="2"><text x="1003" y="169" text-anchor="middle" style="font-weight:bold;font-size:10px;stroke:none; fill:#333399"><tspan dy="14" x="1003">Assumir Vaga</tspan></text></g><g sequence="10"><rect x="950" y="473" width="106" height="92" ry="5" rx="5" style="fill:url(#linearGradientF8FBFEEDF5FCDEEDFAD4E7F8E2E5E9_1614849602);" stroke="191970" /></g><g componentSequence="10"><text x="1003" y="488" text-anchor="middle" style="font-weight:bold;font-size:10px;stroke:none; fill:#333399"><tspan dy="14" x="1003">Separar</tspan><tspan dy="14" x="1003">Ferramentas</tspan><tspan dy="14" x="1003">Trabalho</tspan></text></g><g sequence="12"><polygon points=" 1090 164 1120 134 1150 164 1120 194 1090 164" style="fill:url(#linearGradientFAFBFCFFFFCC_625091630);" stroke="000000" /></g><path style="fill:none; stroke-width:6; stroke:#000000;" d="M1110.0 164.0 L1130.0 164.0" /><path style="fill:none; stroke-width:6; stroke:#000000;" d="M1120.0 154.0 L1120.0 174.0" /><g componentSequence="12"><text x="1120" y="199" text-anchor="middle" style="font-weight:bold;font-size:10px;stroke:none; fill:#333399"><tspan dy="14" x="1120">Join</tspan></text></g><g sequence="35"><ellipse cx="1207" cy="179" rx="17" ry="17" stroke-width="3" style="fill:url(#linearGradientFF6666FF9696FFB6B6_163556585);" stroke="993333" /></g><g sequence="56"><rect x="950" y="594" width="106" height="76" ry="5" rx="5" style="fill:url(#linearGradientF8FBFEEDF5FCDEEDFAD4E7F8E2E5E9_338502733);" stroke="191970" /></g><g componentSequence="56"><text x="1003" y="609" text-anchor="middle" style="font-weight:bold;font-size:10px;stroke:none; fill:#333399"><tspan dy="14" x="1003">Disponibilizar</tspan><tspan dy="14" x="1003">Itens</tspan></text></g><g sequence="61"><polygon points=" 800 390 830 360 860 390 830 420 800 390" style="fill:url(#linearGradientFAFBFCFFFFCC_1899688508);" stroke="000000" /></g><ellipse cx="830" cy="390" rx="17" ry="17" stroke-width="1" style="fill:url(#linearGradientFAFBFCFFFFCC_1164827489);" stroke="000000" /><g componentSequence="61"><text x="830" y="425" text-anchor="middle" style="font-weight:bold;font-size:10px;stroke:none; fill:#333399"><tspan dy="14" x="830">Start</tspan></text></g><g sequence="68"><rect x="360" y="255" width="106" height="76" ry="5" rx="5" style="fill:url(#linearGradientF8FBFEEDF5FCDEEDFAD4E7F8E2E5E9_826408897);" stroke="191970" /></g><g componentSequence="68"><text x="413" y="270" text-anchor="middle" style="font-weight:bold;font-size:10px;stroke:none; fill:#333399"><tspan dy="14" x="413">Revisar</tspan><tspan dy="14" x="413">Requisição</tspan></text></g><g sequence="69"><polygon points=" 510 277 540 247 570 277 540 307 510 277" style="fill:url(#linearGradientFAFBFCFFFFCC_1286847208);" stroke="000000" /></g><g componentSequence="69"><text x="540" y="312" text-anchor="middle" style="font-weight:bold;font-size:10px;stroke:none; fill:#333399"><tspan dy="14" x="540">Análise</tspan></text></g><g sequence="71"><rect x="360" y="29" width="106" height="76" ry="5" rx="5" style="fill:url(#linearGradientF8FBFEEDF5FCDEEDFAD4E7F8E2E5E9_1782454864);" stroke="191970" /></g><g componentSequence="71"><text x="413" y="44" text-anchor="middle" style="font-weight:bold;font-size:10px;stroke:none; fill:#333399"><tspan dy="14" x="413">Corrigir</tspan><tspan dy="14" x="413">Requisição</tspan></text></g><g sequence="74"><rect x="487" y="368" width="106" height="76" ry="5" rx="5" style="fill:url(#linearGradientF8FBFEEDF5FCDEEDFAD4E7F8E2E5E9_1092838053);" stroke="191970" /></g><g componentSequence="74"><text x="540" y="383" text-anchor="middle" style="font-weight:bold;font-size:10px;stroke:none; fill:#333399"><tspan dy="14" x="540">Aprovar</tspan><tspan dy="14" x="540">Requisição</tspan></text></g><g sequence="82"><polygon points=" 660 390 690 360 720 390 690 420 660 390" style="fill:url(#linearGradientFAFBFCFFFFCC_2141332151);" stroke="000000" /></g><g componentSequence="82"><text x="690" y="425" text-anchor="middle" style="font-weight:bold;font-size:10px;stroke:none; fill:#333399"><tspan dy="14" x="690">Análise</tspan></text></g><g sequence="91"><rect x="1067" y="700" width="106" height="92" ry="5" rx="5" style="fill:url(#linearGradientF8FBFEEDF5FCDEEDFAD4E7F8E2E5E9_781693777);" stroke="191970" /></g><g componentSequence="91"><text x="1120" y="715" text-anchor="middle" style="font-weight:bold;font-size:10px;stroke:none; fill:#333399"><tspan dy="14" x="1120">Separar</tspan><tspan dy="14" x="1120">Equipamento</tspan><tspan dy="14" x="1120">s Trabalho</tspan></text></g><g sequence="95"><rect x="160" y="142" width="106" height="76" ry="5" rx="5" style="fill:url(#linearGradientF8FBFEEDF5FCDEEDFAD4E7F8E2E5E9_878821449);" stroke="191970" /></g><g componentSequence="95"><text x="213" y="157" text-anchor="middle" style="font-weight:bold;font-size:10px;stroke:none; fill:#333399"><tspan dy="14" x="213">Aprovar</tspan><tspan dy="14" x="213">Contratação</tspan></text></g><g sequence="98"><polygon points=" 300 164 330 134 360 164 330 194 300 164" style="fill:url(#linearGradientFAFBFCFFFFCC_1846393386);" stroke="000000" /></g><g componentSequence="98"><text x="330" y="199" text-anchor="middle" style="font-weight:bold;font-size:10px;stroke:none; fill:#333399"><tspan dy="14" x="330">Análise</tspan></text></g><g componentSequence="14"><text x="1129" y="404" style="font-size:10px;font-weight:none;stroke:none; fill:#333399" text-anchor="left" /></g><g componentSequence="58"><text x="1129" y="461" style="font-size:10px;font-weight:none;stroke:none; fill:#333399" text-anchor="left" /></g><g componentSequence="64"><text x="896" y="512" style="font-size:10px;font-weight:none;stroke:none; fill:#333399" text-anchor="left" /></g><g componentSequence="65"><text x="883" y="571" style="font-size:10px;font-weight:none;stroke:none; fill:#333399" text-anchor="left" /></g><g componentSequence="70"><text x="498" y="293" style="font-size:10px;font-weight:none;stroke:none; fill:#333399" text-anchor="left" /></g><g componentSequence="72"><text x="549" y="120" style="font-size:10px;font-weight:none;stroke:none; fill:#333399" text-anchor="left" /></g><g componentSequence="75"><text x="550" y="353" style="font-size:10px;font-weight:none;stroke:none; fill:#333399" text-anchor="left" /></g><g componentSequence="83"><text x="636" y="406" style="font-size:10px;font-weight:none;stroke:none; fill:#333399" text-anchor="left" /></g><g componentSequence="85"><text x="700" y="101" style="font-size:10px;font-weight:none;stroke:none; fill:#333399" text-anchor="left" /></g><g componentSequence="86"><text x="770" y="406" style="font-size:10px;font-weight:none;stroke:none; fill:#333399" text-anchor="left" /></g><g componentSequence="87"><text x="839" y="210" style="font-size:10px;font-weight:none;stroke:none; fill:#333399" text-anchor="left" /></g><g componentSequence="88"><text x="1180" y="179" style="font-size:10px;font-weight:none;stroke:none; fill:#333399" text-anchor="left" /></g><g componentSequence="89"><text x="1083" y="180" style="font-size:10px;font-weight:none;stroke:none; fill:#333399" text-anchor="left" /></g><g componentSequence="92"><text x="840" y="717" style="font-size:10px;font-weight:none;stroke:none; fill:#333399" text-anchor="left" /></g><g componentSequence="93"><text x="1130" y="463" style="font-size:10px;font-weight:none;stroke:none; fill:#333399" text-anchor="left" /></g><g componentSequence="97"><text x="127" y="153" style="font-size:10px;font-weight:none;stroke:none; fill:#333399" text-anchor="left" /></g><g componentSequence="99"><text x="293" y="180" style="font-size:10px;font-weight:none;stroke:none; fill:#333399" text-anchor="left" /></g><g componentSequence="100"><text x="422" y="168" style="font-size:10px;font-weight:none;stroke:none; fill:#333399" text-anchor="left" /></g><g componentSequence="101"><text x="340" y="274" style="font-size:10px;font-weight:none;stroke:none; fill:#333399" text-anchor="left" /></g><g componentSequence="102"><text x="259" y="67" style="font-size:10px;font-weight:none;stroke:none; fill:#333399" text-anchor="left" /></g><path style="fill:none; stroke:#000000;stroke-width:1" d="M117.0 84.0 L117.0 179.0 L159.0 179.0" /><polygon style="fill:#000000; stroke:#000000;" points=" 149 174 159 179 149 184 151 179" /><path style="fill:none; stroke:#000000;stroke-width:1" d="M1056.0 180.0 L1089.0 180.0" /><polygon style="fill:#000000; stroke:#000000;" points=" 1079 175 1089 180 1079 185 1081 180" /><path style="fill:none; stroke:#000000;stroke-width:1" d="M829.0 359.0 L829.0 180.0 L949.0 180.0" /><polygon style="fill:#000000; stroke:#000000;" points=" 939 175 949 180 939 185 941 180" /><path style="fill:none; stroke:#000000;stroke-width:1" d="M1056.0 518.0 L1119.0 518.0 L1119.0 226.0" /><polygon style="fill:#000000; stroke:#000000;" points=" 1114 236 1119 226 1124 236 1119 234" /><path style="fill:none; stroke:#000000;stroke-width:1" d="M854.0 452.0 L889.0 518.0 L949.0 518.0" /><polygon style="fill:#000000; stroke:#000000;" points=" 939 513 949 518 939 523 941 518" /><path style="fill:none; stroke:#000000;stroke-width:1" d="M1150.0 179.0 L1190.0 179.0" /><polygon style="fill:#000000; stroke:#000000;" points=" 1180 174 1190 179 1180 184 1182 179" /><path style="fill:none; stroke:#000000;stroke-width:1" d="M1056.0 632.0 L1119.0 632.0 L1119.0 226.0" /><polygon style="fill:#000000; stroke:#000000;" points=" 1114 236 1119 226 1124 236 1119 234" /><path style="fill:none; stroke:#000000;stroke-width:1" d="M1120.0 699.0 L1120.0 226.0" /><polygon style="fill:#000000; stroke:#000000;" points=" 1115 236 1120 226 1125 236 1120 234" /><path style="fill:none; stroke:#000000;stroke-width:1" d="M842.0 452.0 L889.0 631.0 L949.0 631.0" /><polygon style="fill:#000000; stroke:#000000;" points=" 939 626 949 631 939 636 941 631" /><path style="fill:none; stroke:#000000;stroke-width:1" d="M830.0 452.0 L830.0 745.0 L1066.0 745.0" /><polygon style="fill:#000000; stroke:#000000;" points=" 1056 740 1066 745 1056 750 1058 745" /><path style="fill:none; stroke:#000000;stroke-width:1" d="M720.0 406.0 L799.0 406.0" /><polygon style="fill:#000000; stroke:#000000;" points=" 789 401 799 406 789 411 791 406" /><path style="fill:none; stroke:#000000;stroke-width:1" d="M466.0 293.0 L509.0 293.0" /><polygon style="fill:#000000; stroke:#000000;" points=" 499 288 509 293 499 298 501 293" /><path style="fill:none; stroke:#000000;stroke-width:1" d="M330.0 226.0 L330.0 292.0 L359.0 292.0" /><polygon style="fill:#000000; stroke:#000000;" points=" 349 287 359 292 349 297 351 292" /><path style="fill:none; stroke:#000000;stroke-width:1" d="M539.0 246.0 L539.0 67.0 L466.0 67.0" /><polygon style="fill:#000000; stroke:#000000;" points=" 476 72 466 67 476 62 474 67" /><path style="fill:none; stroke:#000000;stroke-width:1" d="M540.0 339.0 L540.0 367.0" /><polygon style="fill:#000000; stroke:#000000;" points=" 545 357 540 367 535 357 540 359" /><path style="fill:none; stroke:#000000;stroke-width:1" d="M359.0 67.0 L212.0 67.0 L212.0 141.0" /><polygon style="fill:#000000; stroke:#000000;" points=" 217 131 212 141 207 131 212 133" /><path style="fill:none; stroke:#000000;stroke-width:1" d="M690.0 359.0 L690.0 67.0 L466.0 67.0" /><polygon style="fill:#000000; stroke:#000000;" points=" 476 72 466 67 476 62 474 67" /><path style="fill:none; stroke:#000000;stroke-width:1" d="M360.0 179.0 L412.0 179.0 L412.0 105.0" /><polygon style="fill:#000000; stroke:#000000;" points=" 407 115 412 105 417 115 412 113" /><path style="fill:none; stroke:#000000;stroke-width:1" d="M593.0 406.0 L659.0 406.0" /><polygon style="fill:#000000; stroke:#000000;" points=" 649 401 659 406 649 411 651 406" /><path style="fill:none; stroke:#000000;stroke-width:1" d="M266.0 180.0 L299.0 180.0" /><polygon style="fill:#000000; stroke:#000000;" points=" 289 175 299 180 289 185 291 180" /><defs><linearGradient xmlns:xlink="http://www.w3.org/1999/xlink" xlink:href="#linearGradient66FF6696FF96B6FFB6" id="linearGradient66FF6696FF96B6FFB6_1790496050" x1="0" y1="49.0" x2="0" y2="84.0" gradientUnits="userSpaceOnUse" xlink:type="simple" xlink:actuate="onLoad" xlink:show="other" /><linearGradient id="linearGradient66FF6696FF96B6FFB6"><stop style="stop-color:#66FF66;stop-opacity:1;" offset="0.0" id="stop66FF66" /><stop style="stop-color:#96FF96;stop-opacity:1;" offset="0.5" id="stop96FF96" /><stop style="stop-color:#B6FFB6;stop-opacity:1;" offset="1.0" id="stopB6FFB6" /></linearGradient><linearGradient xmlns:xlink="http://www.w3.org/1999/xlink" xlink:href="#linearGradientF8FBFEEDF5FCDEEDFAD4E7F8E2E5E9" id="linearGradientF8FBFEEDF5FCDEEDFAD4E7F8E2E5E9_1686056469" x1="0" y1="142.0" x2="0" y2="248.0" gradientUnits="userSpaceOnUse" xlink:type="simple" xlink:actuate="onLoad" xlink:show="other" /><linearGradient id="linearGradientF8FBFEEDF5FCDEEDFAD4E7F8E2E5E9"><stop style="stop-color:#F8FBFE;stop-opacity:1;" offset="0.0" id="stopF8FBFE" /><stop style="stop-color:#EDF5FC;stop-opacity:1;" offset="0.25" id="stopEDF5FC" /><stop style="stop-color:#DEEDFA;stop-opacity:1;" offset="0.5" id="stopDEEDFA" /><stop style="stop-color:#D4E7F8;stop-opacity:1;" offset="0.75" id="stopD4E7F8" /><stop style="stop-color:#E2E5E9;stop-opacity:1;" offset="1.0" id="stopE2E5E9" /></linearGradient><linearGradient xmlns:xlink="http://www.w3.org/1999/xlink" xlink:href="#linearGradientF8FBFEEDF5FCDEEDFAD4E7F8E2E5E9" id="linearGradientF8FBFEEDF5FCDEEDFAD4E7F8E2E5E9_1614849602" x1="0" y1="473.0" x2="0" y2="579.0" gradientUnits="userSpaceOnUse" xlink:type="simple" xlink:actuate="onLoad" xlink:show="other" /><linearGradient xmlns:xlink="http://www.w3.org/1999/xlink" xlink:href="#linearGradientFAFBFCFFFFCC" id="linearGradientFAFBFCFFFFCC_625091630" x1="0" y1="134.0" x2="0" y2="194.0" gradientUnits="userSpaceOnUse" xlink:type="simple" xlink:actuate="onLoad" xlink:show="other" /><linearGradient id="linearGradientFAFBFCFFFFCC"><stop style="stop-color:#FAFBFC;stop-opacity:1;" offset="0.0" id="stopFAFBFC" /><stop style="stop-color:#FFFFCC;stop-opacity:1;" offset="1.0" id="stopFFFFCC" /></linearGradient><linearGradient xmlns:xlink="http://www.w3.org/1999/xlink" xlink:href="#linearGradientFF6666FF9696FFB6B6" id="linearGradientFF6666FF9696FFB6B6_163556585" x1="0" y1="162.0" x2="0" y2="197.0" gradientUnits="userSpaceOnUse" xlink:type="simple" xlink:actuate="onLoad" xlink:show="other" /><linearGradient id="linearGradientFF6666FF9696FFB6B6"><stop style="stop-color:#FF6666;stop-opacity:1;" offset="0.0" id="stopFF6666" /><stop style="stop-color:#FF9696;stop-opacity:1;" offset="0.5" id="stopFF9696" /><stop style="stop-color:#FFB6B6;stop-opacity:1;" offset="1.0" id="stopFFB6B6" /></linearGradient><linearGradient xmlns:xlink="http://www.w3.org/1999/xlink" xlink:href="#linearGradientF8FBFEEDF5FCDEEDFAD4E7F8E2E5E9" id="linearGradientF8FBFEEDF5FCDEEDFAD4E7F8E2E5E9_338502733" x1="0" y1="594.0" x2="0" y2="700.0" gradientUnits="userSpaceOnUse" xlink:type="simple" xlink:actuate="onLoad" xlink:show="other" /><linearGradient xmlns:xlink="http://www.w3.org/1999/xlink" xlink:href="#linearGradientFAFBFCFFFFCC" id="linearGradientFAFBFCFFFFCC_1899688508" x1="0" y1="360.0" x2="0" y2="420.0" gradientUnits="userSpaceOnUse" xlink:type="simple" xlink:actuate="onLoad" xlink:show="other" /><linearGradient xmlns:xlink="http://www.w3.org/1999/xlink" xlink:href="#linearGradientFAFBFCFFFFCC" id="linearGradientFAFBFCFFFFCC_1164827489" x1="0" y1="373.0" x2="0" y2="408.0" gradientUnits="userSpaceOnUse" xlink:type="simple" xlink:actuate="onLoad" xlink:show="other" /><linearGradient xmlns:xlink="http://www.w3.org/1999/xlink" xlink:href="#linearGradientF8FBFEEDF5FCDEEDFAD4E7F8E2E5E9" id="linearGradientF8FBFEEDF5FCDEEDFAD4E7F8E2E5E9_826408897" x1="0" y1="255.0" x2="0" y2="361.0" gradientUnits="userSpaceOnUse" xlink:type="simple" xlink:actuate="onLoad" xlink:show="other" /><linearGradient xmlns:xlink="http://www.w3.org/1999/xlink" xlink:href="#linearGradientFAFBFCFFFFCC" id="linearGradientFAFBFCFFFFCC_1286847208" x1="0" y1="247.0" x2="0" y2="307.0" gradientUnits="userSpaceOnUse" xlink:type="simple" xlink:actuate="onLoad" xlink:show="other" /><linearGradient xmlns:xlink="http://www.w3.org/1999/xlink" xlink:href="#linearGradientF8FBFEEDF5FCDEEDFAD4E7F8E2E5E9" id="linearGradientF8FBFEEDF5FCDEEDFAD4E7F8E2E5E9_1782454864" x1="0" y1="29.0" x2="0" y2="135.0" gradientUnits="userSpaceOnUse" xlink:type="simple" xlink:actuate="onLoad" xlink:show="other" /><linearGradient xmlns:xlink="http://www.w3.org/1999/xlink" xlink:href="#linearGradientF8FBFEEDF5FCDEEDFAD4E7F8E2E5E9" id="linearGradientF8FBFEEDF5FCDEEDFAD4E7F8E2E5E9_1092838053" x1="0" y1="368.0" x2="0" y2="474.0" gradientUnits="userSpaceOnUse" xlink:type="simple" xlink:actuate="onLoad" xlink:show="other" /><linearGradient xmlns:xlink="http://www.w3.org/1999/xlink" xlink:href="#linearGradientFAFBFCFFFFCC" id="linearGradientFAFBFCFFFFCC_2141332151" x1="0" y1="360.0" x2="0" y2="420.0" gradientUnits="userSpaceOnUse" xlink:type="simple" xlink:actuate="onLoad" xlink:show="other" /><linearGradient xmlns:xlink="http://www.w3.org/1999/xlink" xlink:href="#linearGradientF8FBFEEDF5FCDEEDFAD4E7F8E2E5E9" id="linearGradientF8FBFEEDF5FCDEEDFAD4E7F8E2E5E9_781693777" x1="0" y1="700.0" x2="0" y2="806.0" gradientUnits="userSpaceOnUse" xlink:type="simple" xlink:actuate="onLoad" xlink:show="other" /><linearGradient xmlns:xlink="http://www.w3.org/1999/xlink" xlink:href="#linearGradientF8FBFEEDF5FCDEEDFAD4E7F8E2E5E9" id="linearGradientF8FBFEEDF5FCDEEDFAD4E7F8E2E5E9_878821449" x1="0" y1="142.0" x2="0" y2="248.0" gradientUnits="userSpaceOnUse" xlink:type="simple" xlink:actuate="onLoad" xlink:show="other" /><linearGradient xmlns:xlink="http://www.w3.org/1999/xlink" xlink:href="#linearGradientFAFBFCFFFFCC" id="linearGradientFAFBFCFFFFCC_1846393386" x1="0" y1="134.0" x2="0" y2="194.0" gradientUnits="userSpaceOnUse" xlink:type="simple" xlink:actuate="onLoad" xlink:show="other" /></defs></svg>
