<?xml version="1.0" encoding="UTF-8"?>
<svg xmlns="http://www.w3.org/2000/svg" style="stroke-dasharray:none; shape-rendering:auto; font-family:'Arial'; text-rendering:auto; fill-opacity:1; color-interpolation:auto; color-rendering:auto; font-size:12; fill:black; stroke:black; image-rendering:auto; stroke-miterlimit:10; stroke-linecap:square; stroke-linejoin:miter; font-style:normal; stroke-width:1; stroke-dashoffset:0; font-weight:normal; stroke-opacity:1;" contentScriptType="text/ecmascript" preserveAspectRatio="xMidYMid meet" zoomAndPan="magnify" version="1.0" contentStyleType="text/css" xml:xlink="http://www.w3.org/1999/xlink" width="1101" height="801"><rect x="10" y="9" width="1091" height="792" ry="0" rx="0" style="stroke:#000000; fill:#FFFFFF" /><rect x="40" y="669" width="1061" height="132" ry="0" rx="0" style="stroke:#000000; fill:#FFFFFF" /><g componentSequence="7"><text x="-735" y="48" transform="rotate(270)" text-anchor="middle" style="font-weight:bold;font-size:10px;stroke:none; fill:#434343"><tspan dy="14" x="-735">Segurança Trabalho</tspan></text></g><rect x="40" y="405" width="1061" height="132" ry="0" rx="0" style="stroke:#000000; fill:#FFFFFF" /><g componentSequence="6"><text x="-471" y="48" transform="rotate(270)" text-anchor="middle" style="font-weight:bold;font-size:10px;stroke:none; fill:#434343"><tspan dy="14" x="-471">TI</tspan></text></g><rect x="40" y="273" width="1061" height="132" ry="0" rx="0" style="stroke:#000000; fill:#FFFFFF" /><g componentSequence="5"><text x="-339" y="48" transform="rotate(270)" text-anchor="middle" style="font-weight:bold;font-size:10px;stroke:none; fill:#434343"><tspan dy="14" x="-339">Diretoria</tspan></text></g><rect x="40" y="141" width="1061" height="132" ry="0" rx="0" style="stroke:#000000; fill:#FFFFFF" /><g componentSequence="4"><text x="-207" y="48" transform="rotate(270)" text-anchor="middle" style="font-weight:bold;font-size:10px;stroke:none; fill:#434343"><tspan dy="14" x="-207">RH</tspan></text></g><rect x="40" y="537" width="1061" height="132" ry="0" rx="0" style="stroke:#000000; fill:#FFFFFF" /><g componentSequence="3"><text x="-603" y="48" transform="rotate(270)" text-anchor="middle" style="font-weight:bold;font-size:10px;stroke:none; fill:#434343"><tspan dy="14" x="-603">Facilities</tspan></text></g><rect x="40" y="9" width="1061" height="132" ry="0" rx="0" style="stroke:#000000; fill:#FFFFFF" /><g componentSequence="2"><text x="-75" y="48" transform="rotate(270)" text-anchor="middle" style="font-weight:bold;font-size:10px;stroke:none; fill:#434343"><tspan dy="14" x="-75">Gestor</tspan></text></g><g componentSequence="1"><text x="-405" y="18" transform="rotate(270)" text-anchor="middle" style="font-weight:bold;font-size:10px;stroke:none; fill:#434343"><tspan dy="14" x="-405">Recrutamento e Seleção v3.0</tspan></text></g><g sequence="1"><ellipse cx="117" cy="76" rx="17" ry="17" stroke-width="1" style="fill:url(#linearGradient66FF6696FF96B6FFB6_1932270642);" stroke="336633" /></g><g sequence="2"><rect x="750" y="171" width="106" height="76" ry="5" rx="5" style="fill:url(#linearGradientF8FBFEEDF5FCDEEDFAD4E7F8E2E5E9_2112617511);" stroke="191970" /></g><g componentSequence="2"><text x="803" y="198" text-anchor="middle" style="font-weight:bold;font-size:10px;stroke:none; fill:#333399"><tspan dy="14" x="803">Assumir Vaga</tspan></text></g><g sequence="10"><rect x="749" y="427" width="106" height="92" ry="5" rx="5" style="fill:url(#linearGradientF8FBFEEDF5FCDEEDFAD4E7F8E2E5E9_2043967298);" stroke="191970" /></g><g componentSequence="10"><text x="802" y="442" text-anchor="middle" style="font-weight:bold;font-size:10px;stroke:none; fill:#333399"><tspan dy="14" x="802">Separar</tspan><tspan dy="14" x="802">Ferramentas</tspan><tspan dy="14" x="802">Trabalho</tspan></text></g><g sequence="12"><polygon points=" 910 193 940 163 970 193 940 223 910 193" style="fill:url(#linearGradientFAFBFCFFFFCC_1020720668);" stroke="000000" /></g><path style="fill:none; stroke-width:6; stroke:#000000;" d="M930.0 193.0 L950.0 193.0" /><path style="fill:none; stroke-width:6; stroke:#000000;" d="M940.0 183.0 L940.0 203.0" /><g componentSequence="12"><text x="940" y="228" text-anchor="middle" style="font-weight:bold;font-size:10px;stroke:none; fill:#333399"><tspan dy="14" x="940">Join</tspan></text></g><g sequence="35"><ellipse cx="1037" cy="208" rx="17" ry="17" stroke-width="3" style="fill:url(#linearGradientFF6666FF9696FFB6B6_797487160);" stroke="993333" /></g><g sequence="56"><rect x="749" y="567" width="106" height="76" ry="5" rx="5" style="fill:url(#linearGradientF8FBFEEDF5FCDEEDFAD4E7F8E2E5E9_228617002);" stroke="191970" /></g><g componentSequence="56"><text x="802" y="582" text-anchor="middle" style="font-weight:bold;font-size:10px;stroke:none; fill:#333399"><tspan dy="14" x="802">Disponibilizar</tspan><tspan dy="14" x="802">Itens</tspan></text></g><g sequence="61"><polygon points=" 633 325 663 295 693 325 663 355 633 325" style="fill:url(#linearGradientFAFBFCFFFFCC_1460958139);" stroke="000000" /></g><ellipse cx="663" cy="325" rx="17" ry="17" stroke-width="1" style="fill:url(#linearGradientFAFBFCFFFFCC_1559824723);" stroke="000000" /><g componentSequence="61"><text x="663" y="360" text-anchor="middle" style="font-weight:bold;font-size:10px;stroke:none; fill:#333399"><tspan dy="14" x="663">Start</tspan></text></g><g sequence="68"><rect x="150" y="171" width="106" height="76" ry="5" rx="5" style="fill:url(#linearGradientF8FBFEEDF5FCDEEDFAD4E7F8E2E5E9_907701124);" stroke="191970" /></g><g componentSequence="68"><text x="203" y="186" text-anchor="middle" style="font-weight:bold;font-size:10px;stroke:none; fill:#333399"><tspan dy="14" x="203">Revisar</tspan><tspan dy="14" x="203">Requisição</tspan></text></g><g sequence="69"><polygon points=" 410 193 440 163 470 193 440 223 410 193" style="fill:url(#linearGradientFAFBFCFFFFCC_946712406);" stroke="000000" /></g><g componentSequence="69"><text x="440" y="228" text-anchor="middle" style="font-weight:bold;font-size:10px;stroke:none; fill:#333399"><tspan dy="14" x="440">Análise</tspan></text></g><g sequence="71"><rect x="270" y="39" width="106" height="76" ry="5" rx="5" style="fill:url(#linearGradientF8FBFEEDF5FCDEEDFAD4E7F8E2E5E9_1276156491);" stroke="191970" /></g><g componentSequence="71"><text x="323" y="54" text-anchor="middle" style="font-weight:bold;font-size:10px;stroke:none; fill:#333399"><tspan dy="14" x="323">Corrigir</tspan><tspan dy="14" x="323">Requisição</tspan></text></g><g sequence="74"><rect x="390" y="303" width="106" height="76" ry="5" rx="5" style="fill:url(#linearGradientF8FBFEEDF5FCDEEDFAD4E7F8E2E5E9_1488433419);" stroke="191970" /></g><g componentSequence="74"><text x="443" y="318" text-anchor="middle" style="font-weight:bold;font-size:10px;stroke:none; fill:#333399"><tspan dy="14" x="443">Aprovar</tspan><tspan dy="14" x="443">Requisição</tspan></text></g><g sequence="82"><polygon points=" 530 325 560 295 590 325 560 355 530 325" style="fill:url(#linearGradientFAFBFCFFFFCC_1024767954);" stroke="000000" /></g><g componentSequence="82"><text x="560" y="360" text-anchor="middle" style="font-weight:bold;font-size:10px;stroke:none; fill:#333399"><tspan dy="14" x="560">Análise</tspan></text></g><g sequence="91"><rect x="750" y="691" width="106" height="92" ry="5" rx="5" style="fill:url(#linearGradientF8FBFEEDF5FCDEEDFAD4E7F8E2E5E9_1758898233);" stroke="191970" /></g><g componentSequence="91"><text x="803" y="706" text-anchor="middle" style="font-weight:bold;font-size:10px;stroke:none; fill:#333399"><tspan dy="14" x="803">Separar</tspan><tspan dy="14" x="803">Equipamento</tspan><tspan dy="14" x="803">s Trabalho</tspan></text></g><g componentSequence="14"><text x="949" y="406" style="font-size:10px;font-weight:none;stroke:none; fill:#333399" text-anchor="left" /></g><g componentSequence="58"><text x="949" y="472" style="font-size:10px;font-weight:none;stroke:none; fill:#333399" text-anchor="left" /></g><g componentSequence="64"><text x="673" y="473" style="font-size:10px;font-weight:none;stroke:none; fill:#333399" text-anchor="left" /></g><g componentSequence="65"><text x="672" y="539" style="font-size:10px;font-weight:none;stroke:none; fill:#333399" text-anchor="left" /></g><g componentSequence="67"><text x="127" y="167" style="font-size:10px;font-weight:none;stroke:none; fill:#333399" text-anchor="left" /></g><g componentSequence="70"><text x="343" y="209" style="font-size:10px;font-weight:none;stroke:none; fill:#333399" text-anchor="left" /></g><g componentSequence="72"><text x="450" y="88" style="font-size:10px;font-weight:none;stroke:none; fill:#333399" text-anchor="left" /></g><g componentSequence="75"><text x="452" y="279" style="font-size:10px;font-weight:none;stroke:none; fill:#333399" text-anchor="left" /></g><g componentSequence="83"><text x="523" y="341" style="font-size:10px;font-weight:none;stroke:none; fill:#333399" text-anchor="left" /></g><g componentSequence="85"><text x="332" y="417" style="font-size:10px;font-weight:none;stroke:none; fill:#333399" text-anchor="left" /></g><g componentSequence="86"><text x="621" y="341" style="font-size:10px;font-weight:none;stroke:none; fill:#333399" text-anchor="left" /></g><g componentSequence="87"><text x="673" y="208" style="font-size:10px;font-weight:none;stroke:none; fill:#333399" text-anchor="left" /></g><g componentSequence="88"><text x="1005" y="208" style="font-size:10px;font-weight:none;stroke:none; fill:#333399" text-anchor="left" /></g><g componentSequence="89"><text x="893" y="209" style="font-size:10px;font-weight:none;stroke:none; fill:#333399" text-anchor="left" /></g><g componentSequence="92"><text x="673" y="605" style="font-size:10px;font-weight:none;stroke:none; fill:#333399" text-anchor="left" /></g><g componentSequence="93"><text x="949" y="537" style="font-size:10px;font-weight:none;stroke:none; fill:#333399" text-anchor="left" /></g><g componentSequence="94"><text x="213" y="91" style="font-size:10px;font-weight:none;stroke:none; fill:#333399" text-anchor="left" /></g><path style="fill:none; stroke:#000000;stroke-width:1" d="M117.0 94.0 L117.0 208.0 L149.0 208.0" /><polygon style="fill:#000000; stroke:#000000;" points=" 139 203 149 208 139 213 141 208" /><path style="fill:none; stroke:#000000;stroke-width:1" d="M856.0 209.0 L909.0 209.0" /><polygon style="fill:#000000; stroke:#000000;" points=" 899 204 909 209 899 214 901 209" /><path style="fill:none; stroke:#000000;stroke-width:1" d="M663.0 294.0 L663.0 208.0 L749.0 208.0" /><polygon style="fill:#000000; stroke:#000000;" points=" 739 203 749 208 739 213 741 208" /><path style="fill:none; stroke:#000000;stroke-width:1" d="M855.0 472.0 L939.0 472.0 L939.0 255.0" /><polygon style="fill:#000000; stroke:#000000;" points=" 934 265 939 255 944 265 939 263" /><path style="fill:none; stroke:#000000;stroke-width:1" d="M663.0 387.0 L663.0 473.0 L748.0 473.0" /><polygon style="fill:#000000; stroke:#000000;" points=" 738 468 748 473 738 478 740 473" /><path style="fill:none; stroke:#000000;stroke-width:1" d="M970.0 208.0 L1020.0 208.0" /><polygon style="fill:#000000; stroke:#000000;" points=" 1010 203 1020 208 1010 213 1012 208" /><path style="fill:none; stroke:#000000;stroke-width:1" d="M855.0 604.0 L939.0 604.0 L939.0 255.0" /><polygon style="fill:#000000; stroke:#000000;" points=" 934 265 939 255 944 265 939 263" /><path style="fill:none; stroke:#000000;stroke-width:1" d="M856.0 736.0 L939.0 736.0 L939.0 255.0" /><polygon style="fill:#000000; stroke:#000000;" points=" 934 265 939 255 944 265 939 263" /><path style="fill:none; stroke:#000000;stroke-width:1" d="M662.0 387.0 L662.0 604.0 L748.0 604.0" /><polygon style="fill:#000000; stroke:#000000;" points=" 738 599 748 604 738 609 740 604" /><path style="fill:none; stroke:#000000;stroke-width:1" d="M663.0 387.0 L663.0 737.0 L749.0 737.0" /><polygon style="fill:#000000; stroke:#000000;" points=" 739 732 749 737 739 742 741 737" /><path style="fill:none; stroke:#000000;stroke-width:1" d="M590.0 341.0 L632.0 341.0" /><polygon style="fill:#000000; stroke:#000000;" points=" 622 336 632 341 622 346 624 341" /><path style="fill:none; stroke:#000000;stroke-width:1" d="M256.0 209.0 L409.0 209.0" /><polygon style="fill:#000000; stroke:#000000;" points=" 399 204 409 209 399 214 401 209" /><path style="fill:none; stroke:#000000;stroke-width:1" d="M269.0 77.0 L203.0 77.0 L203.0 170.0" /><polygon style="fill:#000000; stroke:#000000;" points=" 208 160 203 170 198 160 203 162" /><path style="fill:none; stroke:#000000;stroke-width:1" d="M440.0 162.0 L440.0 77.0 L376.0 77.0" /><polygon style="fill:#000000; stroke:#000000;" points=" 386 82 376 77 386 72 384 77" /><path style="fill:none; stroke:#000000;stroke-width:1" d="M441.0 255.0 L442.0 302.0" /><polygon style="fill:#000000; stroke:#000000;" points=" 447 292 442 302 437 292 442 294" /><path style="fill:none; stroke:#000000;stroke-width:1" d="M560.0 387.0 L560.0 434.0 L322.0 434.0 L322.0 115.0" /><polygon style="fill:#000000; stroke:#000000;" points=" 317 125 322 115 327 125 322 123" /><path style="fill:none; stroke:#000000;stroke-width:1" d="M496.0 341.0 L529.0 341.0" /><polygon style="fill:#000000; stroke:#000000;" points=" 519 336 529 341 519 346 521 341" /><defs><linearGradient xmlns:xlink="http://www.w3.org/1999/xlink" xlink:href="#linearGradient66FF6696FF96B6FFB6" id="linearGradient66FF6696FF96B6FFB6_1932270642" x1="0" y1="59.0" x2="0" y2="94.0" gradientUnits="userSpaceOnUse" xlink:type="simple" xlink:actuate="onLoad" xlink:show="other" /><linearGradient id="linearGradient66FF6696FF96B6FFB6"><stop style="stop-color:#66FF66;stop-opacity:1;" offset="0.0" id="stop66FF66" /><stop style="stop-color:#96FF96;stop-opacity:1;" offset="0.5" id="stop96FF96" /><stop style="stop-color:#B6FFB6;stop-opacity:1;" offset="1.0" id="stopB6FFB6" /></linearGradient><linearGradient xmlns:xlink="http://www.w3.org/1999/xlink" xlink:href="#linearGradientF8FBFEEDF5FCDEEDFAD4E7F8E2E5E9" id="linearGradientF8FBFEEDF5FCDEEDFAD4E7F8E2E5E9_2112617511" x1="0" y1="171.0" x2="0" y2="277.0" gradientUnits="userSpaceOnUse" xlink:type="simple" xlink:actuate="onLoad" xlink:show="other" /><linearGradient id="linearGradientF8FBFEEDF5FCDEEDFAD4E7F8E2E5E9"><stop style="stop-color:#F8FBFE;stop-opacity:1;" offset="0.0" id="stopF8FBFE" /><stop style="stop-color:#EDF5FC;stop-opacity:1;" offset="0.25" id="stopEDF5FC" /><stop style="stop-color:#DEEDFA;stop-opacity:1;" offset="0.5" id="stopDEEDFA" /><stop style="stop-color:#D4E7F8;stop-opacity:1;" offset="0.75" id="stopD4E7F8" /><stop style="stop-color:#E2E5E9;stop-opacity:1;" offset="1.0" id="stopE2E5E9" /></linearGradient><linearGradient xmlns:xlink="http://www.w3.org/1999/xlink" xlink:href="#linearGradientF8FBFEEDF5FCDEEDFAD4E7F8E2E5E9" id="linearGradientF8FBFEEDF5FCDEEDFAD4E7F8E2E5E9_2043967298" x1="0" y1="427.0" x2="0" y2="533.0" gradientUnits="userSpaceOnUse" xlink:type="simple" xlink:actuate="onLoad" xlink:show="other" /><linearGradient xmlns:xlink="http://www.w3.org/1999/xlink" xlink:href="#linearGradientFAFBFCFFFFCC" id="linearGradientFAFBFCFFFFCC_1020720668" x1="0" y1="163.0" x2="0" y2="223.0" gradientUnits="userSpaceOnUse" xlink:type="simple" xlink:actuate="onLoad" xlink:show="other" /><linearGradient id="linearGradientFAFBFCFFFFCC"><stop style="stop-color:#FAFBFC;stop-opacity:1;" offset="0.0" id="stopFAFBFC" /><stop style="stop-color:#FFFFCC;stop-opacity:1;" offset="1.0" id="stopFFFFCC" /></linearGradient><linearGradient xmlns:xlink="http://www.w3.org/1999/xlink" xlink:href="#linearGradientFF6666FF9696FFB6B6" id="linearGradientFF6666FF9696FFB6B6_797487160" x1="0" y1="191.0" x2="0" y2="226.0" gradientUnits="userSpaceOnUse" xlink:type="simple" xlink:actuate="onLoad" xlink:show="other" /><linearGradient id="linearGradientFF6666FF9696FFB6B6"><stop style="stop-color:#FF6666;stop-opacity:1;" offset="0.0" id="stopFF6666" /><stop style="stop-color:#FF9696;stop-opacity:1;" offset="0.5" id="stopFF9696" /><stop style="stop-color:#FFB6B6;stop-opacity:1;" offset="1.0" id="stopFFB6B6" /></linearGradient><linearGradient xmlns:xlink="http://www.w3.org/1999/xlink" xlink:href="#linearGradientF8FBFEEDF5FCDEEDFAD4E7F8E2E5E9" id="linearGradientF8FBFEEDF5FCDEEDFAD4E7F8E2E5E9_228617002" x1="0" y1="567.0" x2="0" y2="673.0" gradientUnits="userSpaceOnUse" xlink:type="simple" xlink:actuate="onLoad" xlink:show="other" /><linearGradient xmlns:xlink="http://www.w3.org/1999/xlink" xlink:href="#linearGradientFAFBFCFFFFCC" id="linearGradientFAFBFCFFFFCC_1460958139" x1="0" y1="295.0" x2="0" y2="355.0" gradientUnits="userSpaceOnUse" xlink:type="simple" xlink:actuate="onLoad" xlink:show="other" /><linearGradient xmlns:xlink="http://www.w3.org/1999/xlink" xlink:href="#linearGradientFAFBFCFFFFCC" id="linearGradientFAFBFCFFFFCC_1559824723" x1="0" y1="308.0" x2="0" y2="343.0" gradientUnits="userSpaceOnUse" xlink:type="simple" xlink:actuate="onLoad" xlink:show="other" /><linearGradient xmlns:xlink="http://www.w3.org/1999/xlink" xlink:href="#linearGradientF8FBFEEDF5FCDEEDFAD4E7F8E2E5E9" id="linearGradientF8FBFEEDF5FCDEEDFAD4E7F8E2E5E9_907701124" x1="0" y1="171.0" x2="0" y2="277.0" gradientUnits="userSpaceOnUse" xlink:type="simple" xlink:actuate="onLoad" xlink:show="other" /><linearGradient xmlns:xlink="http://www.w3.org/1999/xlink" xlink:href="#linearGradientFAFBFCFFFFCC" id="linearGradientFAFBFCFFFFCC_946712406" x1="0" y1="163.0" x2="0" y2="223.0" gradientUnits="userSpaceOnUse" xlink:type="simple" xlink:actuate="onLoad" xlink:show="other" /><linearGradient xmlns:xlink="http://www.w3.org/1999/xlink" xlink:href="#linearGradientF8FBFEEDF5FCDEEDFAD4E7F8E2E5E9" id="linearGradientF8FBFEEDF5FCDEEDFAD4E7F8E2E5E9_1276156491" x1="0" y1="39.0" x2="0" y2="145.0" gradientUnits="userSpaceOnUse" xlink:type="simple" xlink:actuate="onLoad" xlink:show="other" /><linearGradient xmlns:xlink="http://www.w3.org/1999/xlink" xlink:href="#linearGradientF8FBFEEDF5FCDEEDFAD4E7F8E2E5E9" id="linearGradientF8FBFEEDF5FCDEEDFAD4E7F8E2E5E9_1488433419" x1="0" y1="303.0" x2="0" y2="409.0" gradientUnits="userSpaceOnUse" xlink:type="simple" xlink:actuate="onLoad" xlink:show="other" /><linearGradient xmlns:xlink="http://www.w3.org/1999/xlink" xlink:href="#linearGradientFAFBFCFFFFCC" id="linearGradientFAFBFCFFFFCC_1024767954" x1="0" y1="295.0" x2="0" y2="355.0" gradientUnits="userSpaceOnUse" xlink:type="simple" xlink:actuate="onLoad" xlink:show="other" /><linearGradient xmlns:xlink="http://www.w3.org/1999/xlink" xlink:href="#linearGradientF8FBFEEDF5FCDEEDFAD4E7F8E2E5E9" id="linearGradientF8FBFEEDF5FCDEEDFAD4E7F8E2E5E9_1758898233" x1="0" y1="691.0" x2="0" y2="797.0" gradientUnits="userSpaceOnUse" xlink:type="simple" xlink:actuate="onLoad" xlink:show="other" /></defs></svg>
